<svg width="28" height="28" viewBox="0 0 24 24" fill="none" xmlns="http://www.w3.org/2000/svg">
<mask id="mask0_243_2" style="mask-type:luminance" maskUnits="userSpaceOnUse" x="2" y="2" width="20" height="20">
<path d="M12 3C16.97 3 21 7.03 21 12C21 16.97 16.97 21 12 21C7.03 21 3 16.97 3 12C3 7.03 7.03 3 12 3Z" stroke="white" stroke-width="2" stroke-linecap="round" stroke-linejoin="round"/>
<path d="M13.8 13.8L7 17L10.2 10.2L17 7L13.8 13.8Z" fill="white"/>
<path d="M12 13C12.5523 13 13 12.5523 13 12C13 11.4477 12.5523 11 12 11C11.4477 11 11 11.4477 11 12C11 12.5523 11.4477 13 12 13Z" fill="black"/>
</mask>
<g mask="url(#mask0_243_2)">
<path d="M24 0H0V24H24V0Z" fill="black"/>
</g>
</svg>
