<svg width="28" height="28" viewBox="0 0 24 24" fill="none" xmlns="http://www.w3.org/2000/svg">
<path d="M17.755 14C18.3514 14.0005 18.9232 14.2378 19.3447 14.6597C19.7663 15.0816 20.003 15.6536 20.003 16.25V17.168C20.003 17.741 19.824 18.2997 19.491 18.766C17.945 20.93 15.421 22.001 12.001 22.001C8.57903 22.001 6.05603 20.929 4.51403 18.765C4.18215 18.299 4.00388 17.7411 4.00403 17.169V16.249C4.00429 15.6526 4.24133 15.0807 4.66304 14.659C5.08475 14.2373 5.65664 14.0003 6.25303 14H17.755ZM12 2.005C12.6566 2.005 13.3068 2.13433 13.9134 2.38561C14.5201 2.63688 15.0713 3.00518 15.5356 3.46947C15.9999 3.93376 16.3682 4.48496 16.6194 5.09159C16.8707 5.69822 17 6.3484 17 7.005C17 7.66161 16.8707 8.31179 16.6194 8.91842C16.3682 9.52505 15.9999 10.0762 15.5356 10.5405C15.0713 11.0048 14.5201 11.3731 13.9134 11.6244C13.3068 11.8757 12.6566 12.005 12 12.005C10.6739 12.005 9.40218 11.4782 8.46449 10.5405C7.52681 9.60286 7.00003 8.33109 7.00003 7.005C7.00003 5.67892 7.52681 4.40715 8.46449 3.46947C9.40218 2.53179 10.6739 2.005 12 2.005Z" fill="black"/>
</svg>
