<svg width="28" height="28" viewBox="0 0 24 24" fill="none" xmlns="http://www.w3.org/2000/svg">
<path d="M9.74702 21.734C10.4865 21.9105 11.2435 21.9995 12.0035 21.9995C12.7619 21.9988 13.5175 21.9092 14.255 21.7325C14.4489 21.6858 14.6237 21.5805 14.7556 21.4309C14.8874 21.2813 14.97 21.0947 14.992 20.8965L15.161 19.361C15.1898 19.0865 15.3155 18.8312 15.5155 18.641C15.7156 18.4509 15.9769 18.3383 16.2525 18.3235C16.436 18.3155 16.6185 18.35 16.7865 18.4235L18.19 19.039C18.312 19.0939 18.4442 19.1228 18.578 19.1236C18.7118 19.1245 18.8443 19.0974 18.967 19.044C19.0905 18.9915 19.201 18.9135 19.292 18.815C20.3236 17.7023 21.094 16.3736 21.547 14.9255C21.6064 14.7334 21.6047 14.5275 21.542 14.3365C21.4792 14.1454 21.3587 13.9785 21.197 13.859L19.95 12.939C19.8015 12.8311 19.6806 12.6896 19.5973 12.5261C19.5139 12.3625 19.4705 12.1816 19.4705 11.998C19.4705 11.8144 19.5139 11.6335 19.5973 11.4699C19.6806 11.3064 19.8015 11.1649 19.95 11.057L21.193 10.139C21.3552 10.0193 21.4761 9.85198 21.5388 9.6604C21.6015 9.46882 21.603 9.26245 21.543 9.06999C21.0907 7.62135 20.3193 6.29259 19.2855 5.18149C19.1484 5.03539 18.9695 4.93533 18.7732 4.89504C18.577 4.85475 18.3731 4.87622 18.1895 4.95649L16.7865 5.57449C16.6415 5.63999 16.4835 5.67449 16.3235 5.67449C16.0356 5.6737 15.758 5.56677 15.544 5.37415C15.33 5.18153 15.1945 4.91675 15.1635 4.63049L14.9935 3.10049C14.9715 2.89975 14.8875 2.71088 14.753 2.56021C14.6186 2.40954 14.4405 2.30459 14.2435 2.25999C13.5097 2.0963 12.7608 2.00933 12.009 2.00049C11.2521 2.0095 10.4981 2.09663 9.75902 2.26049C9.5622 2.30463 9.3841 2.40918 9.24962 2.55953C9.11515 2.70987 9.03102 2.89848 9.00902 3.09899L8.83902 4.62999C8.80671 4.91673 8.67003 5.18155 8.45502 5.37399C8.23532 5.56042 7.95855 5.66625 7.67052 5.67399C7.51164 5.67388 7.3545 5.64085 7.20902 5.57699L5.80902 4.95899C5.62487 4.87792 5.42007 4.85613 5.22299 4.89662C5.0259 4.93711 4.84629 5.03789 4.70902 5.18499C3.67699 6.29655 2.90654 7.62478 2.45402 9.07249C2.39416 9.26488 2.39569 9.47114 2.45841 9.66262C2.52114 9.8541 2.64193 10.0213 2.80402 10.141L4.04802 11.059C4.27025 11.2232 4.42729 11.4607 4.49143 11.7295C4.55556 11.9983 4.52265 12.2811 4.39852 12.528C4.31594 12.6917 4.19605 12.8337 4.04852 12.9425L2.80352 13.862C2.64163 13.9816 2.52096 14.1486 2.45825 14.3399C2.39554 14.5312 2.39388 14.7372 2.45352 14.9295C2.90478 16.3788 3.67536 17.7084 4.70852 18.8205C4.84499 18.9677 5.02394 19.0686 5.22048 19.1093C5.41701 19.15 5.62134 19.1284 5.80502 19.0475L7.21402 18.429C7.35952 18.365 7.51652 18.332 7.67552 18.332H7.67952C7.96638 18.3326 8.24302 18.4385 8.45688 18.6297C8.67074 18.8209 8.80691 19.084 8.83952 19.369L9.00852 20.8975C9.03053 21.096 9.11327 21.2828 9.24544 21.4326C9.37762 21.5823 9.55278 21.6875 9.74702 21.734ZM12 15.125C11.1712 15.125 10.3764 14.7957 9.79031 14.2097C9.20426 13.6236 8.87502 12.8288 8.87502 12C8.87502 11.1712 9.20426 10.3763 9.79031 9.79028C10.3764 9.20423 11.1712 8.87499 12 8.87499C12.8288 8.87499 13.6237 9.20423 14.2097 9.79028C14.7958 10.3763 15.125 11.1712 15.125 12C15.125 12.8288 14.7958 13.6236 14.2097 14.2097C13.6237 14.7957 12.8288 15.125 12 15.125Z" fill="black"/>
</svg>
