<svg width="28" height="28" viewBox="0 0 24 24" fill="none" xmlns="http://www.w3.org/2000/svg">
<path d="M12 8.24997C11.0054 8.24997 10.0516 8.64506 9.34835 9.34832C8.64509 10.0516 8.25 11.0054 8.25 12C8.25 12.9945 8.64509 13.9484 9.34835 14.6516C10.0516 15.3549 11.0054 15.75 12 15.75C12.9946 15.75 13.9484 15.3549 14.6517 14.6516C15.3549 13.9484 15.75 12.9945 15.75 12C15.75 11.0054 15.3549 10.0516 14.6517 9.34832C13.9484 8.64506 12.9946 8.24997 12 8.24997ZM9.75 12C9.75 11.4032 9.98705 10.8309 10.409 10.409C10.831 9.98703 11.4033 9.74997 12 9.74997C12.5967 9.74997 13.169 9.98703 13.591 10.409C14.0129 10.8309 14.25 11.4032 14.25 12C14.25 12.5967 14.0129 13.169 13.591 13.591C13.169 14.0129 12.5967 14.25 12 14.25C11.4033 14.25 10.831 14.0129 10.409 13.591C9.98705 13.169 9.75 12.5967 9.75 12ZM9.63 22.221C10.4063 22.4062 11.202 22.5 12 22.5C12.7973 22.4991 13.5917 22.4047 14.367 22.2187C14.5897 22.166 14.7906 22.0458 14.9423 21.8745C15.0941 21.7032 15.1891 21.4891 15.2145 21.2617L15.39 19.6642C15.4068 19.4899 15.4648 19.322 15.5594 19.1746C15.6539 19.0272 15.7822 18.9044 15.9337 18.8164C16.0851 18.7285 16.2554 18.6778 16.4303 18.6688C16.6052 18.6597 16.7798 18.6924 16.9395 18.7642L18.4058 19.4062C18.6156 19.4988 18.8491 19.5237 19.0738 19.4773C19.2984 19.4309 19.503 19.3156 19.659 19.1475C20.7423 17.9801 21.551 16.5853 22.026 15.0652C22.0939 14.8453 22.0917 14.6098 22.0198 14.3912C21.9479 14.1725 21.8099 13.9817 21.6248 13.845L20.328 12.8887C20.1862 12.7856 20.0709 12.6504 19.9914 12.4941C19.912 12.3378 19.8707 12.165 19.8709 11.9897C19.8711 11.8143 19.9128 11.6416 19.9927 11.4855C20.0725 11.3294 20.1882 11.1945 20.3303 11.0917L21.6202 10.1392C21.807 10.0033 21.9463 9.8122 22.0185 9.59285C22.0908 9.3735 22.0924 9.137 22.023 8.91672C21.549 7.39603 20.7399 6.00104 19.6553 4.83448C19.4984 4.66681 19.2935 4.55189 19.0686 4.50555C18.8438 4.45921 18.6101 4.48372 18.3998 4.57572L16.9402 5.21772C16.7803 5.28746 16.6061 5.31857 16.4319 5.30855C16.2577 5.29853 16.0883 5.24765 15.9374 5.16003C15.7865 5.07242 15.6583 4.95052 15.5632 4.80419C15.4681 4.65787 15.4088 4.49122 15.39 4.31772L15.213 2.72773C15.1878 2.49767 15.0914 2.28124 14.9371 2.10871C14.7829 1.93618 14.5786 1.81617 14.3527 1.76548C13.5827 1.59272 12.7966 1.50147 12.0075 1.49323C11.2137 1.50265 10.4231 1.59388 9.648 1.76548C9.42202 1.815 9.21734 1.93436 9.06296 2.10665C8.90857 2.27894 8.81229 2.49544 8.78775 2.72548L8.61 4.31697C8.59058 4.49073 8.53075 4.65753 8.43528 4.80401C8.33982 4.95049 8.21138 5.07258 8.06025 5.1605C7.90913 5.24842 7.73951 5.29973 7.56499 5.31032C7.39047 5.3209 7.2159 5.29048 7.05525 5.22147L5.59575 4.57872C5.38522 4.48896 5.15221 4.46599 4.92821 4.51294C4.7042 4.55988 4.50002 4.67448 4.34325 4.84122C3.25858 6.00898 2.44881 7.40454 1.97325 8.92572C1.90581 9.14549 1.90826 9.38077 1.98027 9.59908C2.05228 9.8174 2.19029 10.008 2.37525 10.1445L3.669 11.0985C3.80993 11.2022 3.92451 11.3376 4.00347 11.4937C4.08243 11.6499 4.12358 11.8224 4.12358 11.9973C4.12358 12.1723 4.08243 12.3448 4.00347 12.501C3.92451 12.6571 3.80993 12.7925 3.669 12.8962L2.37525 13.8525C2.18968 13.9893 2.05133 14.1806 1.97943 14.3997C1.90752 14.6187 1.90562 14.8548 1.974 15.075C2.44916 16.5972 3.25894 17.9939 4.344 19.1625C4.4472 19.2733 4.57227 19.3615 4.71131 19.4215C4.85034 19.4816 5.00031 19.5121 5.15175 19.5112C5.304 19.5112 5.45475 19.4797 5.595 19.419L7.06125 18.7747C7.22118 18.7056 7.39508 18.675 7.56899 18.6853C7.7429 18.6957 7.91196 18.7466 8.06259 18.8342C8.21322 18.9217 8.34121 19.0433 8.43628 19.1893C8.53135 19.3353 8.59085 19.5016 8.61 19.6747L8.78625 21.2692C8.81226 21.4953 8.90716 21.708 9.05809 21.8784C9.20901 22.0488 9.40867 22.1679 9.63 22.221ZM13.7557 20.8222C12.5986 21.0604 11.4051 21.0604 10.248 20.8222L10.1017 19.5172C10.0303 18.8788 9.72583 18.2892 9.24675 17.8612C8.87184 17.5306 8.41099 17.3129 7.91752 17.2333C7.42406 17.1537 6.91812 17.2153 6.45825 17.4112L5.25375 17.9362C4.47617 17.0469 3.87817 16.0154 3.49275 14.8987L4.56075 14.1097C4.89071 13.8666 5.15892 13.5493 5.34376 13.1835C5.5286 12.8177 5.62491 12.4136 5.62491 12.0037C5.62491 11.5939 5.5286 11.1897 5.34376 10.8239C5.15892 10.4581 4.89071 10.1409 4.56075 9.89772L3.495 9.11023C3.88077 7.9946 4.47876 6.96416 5.256 6.07572L6.456 6.60072C6.78675 6.74678 7.14444 6.82189 7.506 6.82123C8.14987 6.81921 8.77053 6.58061 9.24996 6.15083C9.72939 5.72104 10.0341 5.13004 10.1063 4.49022L10.2517 3.17997C10.8322 3.06747 11.4218 3.00747 12.012 2.99997C12.5985 3.00747 13.1835 3.06747 13.7595 3.17997L13.899 4.48497C13.9685 5.12521 14.2722 5.71715 14.7518 6.14698C15.1273 6.47887 15.5893 6.69735 16.0842 6.77701C16.579 6.85667 17.0863 6.79424 17.547 6.59697L18.747 6.07197C19.5249 6.96051 20.1234 7.99122 20.5095 9.10722L19.4423 9.89173C19.1106 10.134 18.8408 10.4512 18.6548 10.8174C18.4688 11.1836 18.3719 11.5885 18.3719 11.9992C18.3719 12.41 18.4688 12.8149 18.6548 13.1811C18.8408 13.5473 19.1106 13.8644 19.4423 14.1067L20.5087 14.8942C20.1216 16.0078 19.5246 17.0369 18.75 17.9257L17.55 17.4007C17.1745 17.2336 16.7648 17.1577 16.3543 17.1793C15.9438 17.2009 15.5443 17.3193 15.1884 17.5248C14.8325 17.7304 14.5302 18.0172 14.3064 18.3619C14.0825 18.7067 13.9435 19.0995 13.9005 19.5082L13.7557 20.8222Z" fill="black"/>
</svg>
